<svg width="901.801" height="100.9" viewBox="0 0 901.801 100.9" xmlns="http://www.w3.org/2000/svg"><g id="svgGroup" stroke-linecap="round" fill-rule="evenodd" font-size="9pt" stroke="#000" stroke-width="0.25mm" fill="none" style="stroke:#000;stroke-width:0.25mm;fill:none"><path d="M 0 56 L 0 27.1 A 58.041 58.041 0 0 1 0.37 20.374 Q 0.86 16.179 2 12.7 A 18.319 18.319 0 0 1 5.157 6.795 A 16.844 16.844 0 0 1 9.05 3.3 A 18.05 18.05 0 0 1 13.995 1.104 Q 17.854 0 23 0 A 40.283 40.283 0 0 1 27.894 0.279 Q 32.885 0.891 36.15 2.85 Q 40.9 5.7 42.9 11 A 29.946 29.946 0 0 1 44.461 17.111 Q 44.893 19.974 44.9 23.198 A 48.91 48.91 0 0 1 44.9 23.3 L 44.9 30.1 L 30.7 30.1 L 30.7 23.1 Q 30.7 19.7 30.35 16.9 Q 30.014 14.207 28.567 12.578 A 6.173 6.173 0 0 0 28.45 12.45 A 4.408 4.408 0 0 0 26.896 11.413 Q 25.416 10.8 23.1 10.8 A 13.12 13.12 0 0 0 21.125 10.939 Q 20.093 11.096 19.272 11.433 A 5.173 5.173 0 0 0 17.55 12.55 A 7.592 7.592 0 0 0 15.825 15.275 A 10.567 10.567 0 0 0 15.3 17.25 Q 14.804 20.177 14.8 23.843 A 54.842 54.842 0 0 0 14.8 23.9 L 14.8 59.1 A 45.886 45.886 0 0 0 14.883 61.942 Q 14.969 63.33 15.146 64.518 A 20.046 20.046 0 0 0 15.5 66.35 A 9.731 9.731 0 0 0 16.187 68.291 Q 16.827 69.606 17.835 70.474 A 6.097 6.097 0 0 0 18.05 70.65 Q 19.9 72.1 23.1 72.1 A 12.293 12.293 0 0 0 24.963 71.969 Q 25.915 71.823 26.665 71.513 A 4.502 4.502 0 0 0 28.35 70.35 A 7.451 7.451 0 0 0 29.751 67.961 Q 30.106 66.999 30.278 65.854 A 13.046 13.046 0 0 0 30.3 65.7 Q 30.7 62.8 30.7 59.2 L 30.7 51.9 L 44.9 51.9 L 44.9 58.4 A 46.559 46.559 0 0 1 44.483 64.788 A 34.042 34.042 0 0 1 43 71.15 Q 41.1 76.7 36.35 79.85 A 16.621 16.621 0 0 1 31.856 81.89 Q 28.107 83 23 83 A 36.561 36.561 0 0 1 17.574 82.624 Q 14.768 82.202 12.482 81.307 A 16.64 16.64 0 0 1 9.05 79.5 Q 4 76 2 69.95 Q 0.03 63.99 0.001 56.235 A 62.081 62.081 0 0 1 0 56 Z" id="0" vector-effect="non-scaling-stroke"/><path d="M 76.3 46 L 76.3 41 A 29.675 29.675 0 0 0 76.251 39.238 Q 76.169 37.863 75.95 36.8 A 6.573 6.573 0 0 0 75.621 35.682 Q 75.372 35.06 75.007 34.593 A 3.574 3.574 0 0 0 74.65 34.2 Q 73.7 33.3 71.7 33.3 A 5.891 5.891 0 0 0 70.54 33.408 Q 69.831 33.551 69.276 33.881 A 3.421 3.421 0 0 0 68.95 34.1 A 4.099 4.099 0 0 0 67.732 35.626 A 5.392 5.392 0 0 0 67.45 36.35 Q 67 37.8 66.9 39.7 L 66.7 43.2 L 53.8 42.7 A 35.337 35.337 0 0 1 54.362 37.226 Q 54.895 34.397 55.917 32.158 A 14.624 14.624 0 0 1 58.75 27.95 A 14.455 14.455 0 0 1 64.503 24.425 Q 68.076 23.2 72.9 23.2 A 24.862 24.862 0 0 1 77.59 23.612 Q 82.758 24.607 85.55 28 Q 89.102 32.316 89.46 39.381 A 31.986 31.986 0 0 1 89.5 41 L 89.5 67.7 Q 89.5 70.9 89.65 73.5 Q 89.8 76.1 90.05 78.2 A 805.358 805.358 0 0 0 90.259 79.942 Q 90.388 81 90.5 81.9 L 78.3 81.9 A 146.352 146.352 0 0 0 78.009 80.045 Q 77.803 78.785 77.55 77.35 Q 77.117 74.896 76.916 73.692 A 127.839 127.839 0 0 1 76.9 73.6 Q 75.9 77.1 73.1 79.95 A 9.294 9.294 0 0 1 68.174 82.549 A 13.55 13.55 0 0 1 65.5 82.8 A 12.398 12.398 0 0 1 61.987 82.321 A 10.248 10.248 0 0 1 58.8 80.75 Q 56 78.7 54.5 75.55 Q 53 72.4 53 69 Q 53 63.6 55 59.9 Q 57 56.2 60.3 53.7 A 35.664 35.664 0 0 1 65.633 50.379 A 41.934 41.934 0 0 1 67.8 49.35 Q 72 47.5 76.3 46 Z M 76.3 68.9 L 76.3 52.8 Q 74.1 54.1 72.15 55.4 A 20.17 20.17 0 0 0 69.705 57.306 A 17.455 17.455 0 0 0 68.75 58.25 A 11.632 11.632 0 0 0 67.042 60.581 A 10.387 10.387 0 0 0 66.55 61.6 A 9.436 9.436 0 0 0 65.954 63.749 A 13.015 13.015 0 0 0 65.8 65.8 A 13.308 13.308 0 0 0 65.935 67.755 Q 66.089 68.79 66.419 69.634 A 6.181 6.181 0 0 0 67.05 70.85 A 4.35 4.35 0 0 0 68.223 72.048 Q 69.118 72.649 70.298 72.696 A 5.08 5.08 0 0 0 70.5 72.7 Q 71.8 72.7 72.95 72.05 Q 74.1 71.4 75 70.5 A 12.659 12.659 0 0 0 75.514 69.957 Q 75.768 69.672 75.963 69.409 A 5.063 5.063 0 0 0 76.3 68.9 Z" id="1" vector-effect="non-scaling-stroke"/><path d="M 113.4 81.9 L 99.8 81.9 L 99.8 24.1 L 113.4 24.1 L 113.4 33 A 39.697 39.697 0 0 1 115.275 30.091 Q 116.29 28.667 117.306 27.569 A 15.753 15.753 0 0 1 119.4 25.65 Q 122.4 23.4 126 23.4 A 12.467 12.467 0 0 1 126.429 23.407 Q 126.769 23.419 127.05 23.45 Q 127.36 23.485 127.74 23.543 A 26.53 26.53 0 0 1 128.1 23.6 L 128.1 37.7 Q 126.9 37.2 125.45 36.85 Q 124 36.5 122.5 36.5 A 9.646 9.646 0 0 0 118.732 37.232 A 9.264 9.264 0 0 0 117.6 37.8 A 10.101 10.101 0 0 0 115.78 39.2 Q 114.557 40.366 113.4 42.1 L 113.4 81.9 Z" id="2" vector-effect="non-scaling-stroke"/><path d="M 157.4 81.9 L 142.3 81.9 L 130.8 24.1 L 144.1 24.1 L 150 65.6 L 155.8 24.1 L 168.9 24.1 L 157.4 81.9 Z" id="3" vector-effect="non-scaling-stroke"/><path d="M 189.2 81.9 L 175.6 81.9 L 175.6 24.1 L 189.2 24.1 L 189.2 81.9 Z M 189.2 14.9 L 175.6 14.9 L 175.6 3.6 L 189.2 3.6 L 189.2 14.9 Z" id="4" vector-effect="non-scaling-stroke"/><path d="M 213.6 81.9 L 200 81.9 L 200 24.1 L 213.6 24.1 L 213.6 29.9 A 30.847 30.847 0 0 1 218.028 26.319 A 26.838 26.838 0 0 1 220.15 25.05 Q 223.6 23.2 227.6 23.2 A 12.01 12.01 0 0 1 229.898 23.407 Q 231.258 23.672 232.326 24.278 A 6.603 6.603 0 0 1 233.3 24.95 A 9.816 9.816 0 0 1 235.9 28.366 A 12.333 12.333 0 0 1 236.4 29.6 Q 237.4 32.5 237.4 35.9 L 237.4 81.9 L 223.8 81.9 L 223.8 38.6 A 13.624 13.624 0 0 0 223.726 37.127 Q 223.557 35.58 223.005 34.608 A 4.128 4.128 0 0 0 223 34.6 A 2.555 2.555 0 0 0 221.58 33.452 Q 220.875 33.2 219.9 33.2 A 5.729 5.729 0 0 0 218.485 33.388 Q 217.701 33.588 216.85 34 A 19.357 19.357 0 0 0 214.252 35.529 A 22.18 22.18 0 0 0 213.6 36 L 213.6 81.9 Z" id="5" vector-effect="non-scaling-stroke"/><path d="M 285.3 22.6 L 287.1 21.8 L 290.4 29.1 A 19.008 19.008 0 0 0 289.64 29.327 Q 288.851 29.578 287.801 29.969 A 67.619 67.619 0 0 0 287.45 30.1 Q 285.6 30.8 283.8 31.6 Q 282.131 32.342 281.15 32.912 A 12.181 12.181 0 0 0 281 33 A 17.461 17.461 0 0 1 281.682 34.79 Q 281.971 35.683 282.218 36.714 A 34.477 34.477 0 0 1 282.5 38 Q 283.1 41 283.1 43.7 A 33.086 33.086 0 0 1 282.737 48.732 Q 282.269 51.769 281.2 54.3 A 15.064 15.064 0 0 1 277.722 59.422 A 14.522 14.522 0 0 1 275.35 61.25 A 15.142 15.142 0 0 1 271.052 63.029 Q 269.144 63.512 266.904 63.647 A 29.844 29.844 0 0 1 265.1 63.7 Q 263 63.7 261 63.35 A 36.507 36.507 0 0 1 258.646 62.861 A 29.746 29.746 0 0 1 257.3 62.5 A 26.081 26.081 0 0 0 256.155 64.393 A 31.062 31.062 0 0 0 256.15 64.4 Q 255.6 65.4 255.6 66.5 A 1.821 1.821 0 0 0 256.194 67.849 Q 256.444 68.093 256.8 68.3 A 4.773 4.773 0 0 0 257.602 68.662 Q 258.487 68.977 259.832 69.178 A 23.92 23.92 0 0 0 260.8 69.3 L 273 70.5 A 24.023 24.023 0 0 1 277.076 71.236 Q 279.295 71.853 280.998 72.895 A 11.34 11.34 0 0 1 283.5 74.95 Q 286.797 78.586 286.897 84.712 A 23.644 23.644 0 0 1 286.9 85.1 A 19.032 19.032 0 0 1 286.512 89.045 A 13.424 13.424 0 0 1 284.55 93.8 A 12.488 12.488 0 0 1 280.858 97.348 Q 279.37 98.302 277.501 99.007 A 22.014 22.014 0 0 1 277.25 99.1 Q 273.654 100.408 268.5 100.766 A 59.329 59.329 0 0 1 264.4 100.9 A 49.603 49.603 0 0 1 259.506 100.671 Q 256.95 100.417 254.721 99.883 A 29.309 29.309 0 0 1 254 99.7 A 20.25 20.25 0 0 1 250.907 98.618 Q 249.222 97.859 247.941 96.839 A 11.177 11.177 0 0 1 247 96 Q 244.5 93.5 244.5 89.5 A 10.886 10.886 0 0 1 244.885 86.562 A 9.396 9.396 0 0 1 245.65 84.65 A 11.825 11.825 0 0 1 245.668 84.617 A 12.066 12.066 0 0 1 248.8 80.9 Q 250.8 79.3 253.1 78.2 Q 249.8 77.3 248.05 75.3 A 7.026 7.026 0 0 1 246.301 70.588 A 8.901 8.901 0 0 1 246.3 70.5 A 11.341 11.341 0 0 1 246.649 67.624 A 8.911 8.911 0 0 1 248 64.7 A 23.909 23.909 0 0 1 249.596 62.701 Q 250.919 61.203 252.7 59.6 Q 249.6 57.1 248.05 53.35 A 17.734 17.734 0 0 1 247.106 50.207 Q 246.765 48.579 246.616 46.661 A 40.887 40.887 0 0 1 246.5 43.5 A 33.709 33.709 0 0 1 246.842 38.566 Q 247.228 35.957 248.052 33.765 A 18.781 18.781 0 0 1 248.65 32.35 Q 250.8 27.8 254.95 25.5 A 17.55 17.55 0 0 1 259.882 23.706 Q 261.987 23.264 264.404 23.208 A 30.47 30.47 0 0 1 265.1 23.2 A 26.077 26.077 0 0 1 268.339 23.39 Q 270.863 23.707 272.8 24.55 Q 275.9 25.9 277.9 28.6 A 8.807 8.807 0 0 1 278.481 27.835 Q 279.143 27.046 280.199 26.06 A 36.879 36.879 0 0 1 280.7 25.6 A 18.144 18.144 0 0 1 284.978 22.753 A 20.404 20.404 0 0 1 285.3 22.6 Z M 265.1 55 A 8.156 8.156 0 0 0 266.255 54.924 Q 266.863 54.836 267.364 54.651 A 3.935 3.935 0 0 0 268 54.35 Q 269.1 53.7 269.7 52.25 A 9.278 9.278 0 0 0 270.122 50.948 Q 270.382 49.907 270.5 48.6 A 45.188 45.188 0 0 0 270.637 46.541 Q 270.684 45.484 270.696 44.302 A 79.885 79.885 0 0 0 270.7 43.5 A 71.446 71.446 0 0 0 270.662 41.097 Q 270.625 40.003 270.553 39.033 A 39.635 39.635 0 0 0 270.5 38.4 A 19.932 19.932 0 0 0 270.301 36.849 Q 270.094 35.638 269.75 34.7 A 5.304 5.304 0 0 0 269.237 33.651 A 3.734 3.734 0 0 0 268.1 32.5 Q 267.249 31.958 265.918 31.836 A 8.937 8.937 0 0 0 265.1 31.8 Q 263.654 31.8 262.627 32.252 A 4.069 4.069 0 0 0 262.15 32.5 A 3.887 3.887 0 0 0 260.768 33.962 A 5.19 5.19 0 0 0 260.45 34.65 Q 259.9 36.1 259.65 38.3 Q 259.459 39.985 259.414 42.138 A 65.454 65.454 0 0 0 259.4 43.5 A 67.037 67.037 0 0 0 259.439 45.826 Q 259.475 46.887 259.548 47.833 A 38.209 38.209 0 0 0 259.6 48.45 Q 259.757 50.138 260.161 51.395 A 8.563 8.563 0 0 0 260.4 52.05 Q 261 53.5 262.15 54.25 Q 263.3 55 265.1 55 Z M 268.8 80.4 L 258.9 79.5 A 18.265 18.265 0 0 0 257.506 80.761 A 15.53 15.53 0 0 0 256.95 81.35 Q 256.1 82.3 255.6 83.4 Q 255.1 84.5 255.1 85.7 Q 255.1 87.838 256.856 89.062 A 5.853 5.853 0 0 0 257.5 89.45 Q 259.345 90.411 263.315 90.633 A 46.407 46.407 0 0 0 265.9 90.7 A 45.825 45.825 0 0 0 268.829 90.613 Q 271.545 90.439 273.369 89.914 A 10.462 10.462 0 0 0 274.3 89.6 A 5.122 5.122 0 0 0 275.731 88.776 Q 276.94 87.763 277.082 86.063 A 5.576 5.576 0 0 0 277.1 85.6 Q 277.1 84 276.4 83 A 3.325 3.325 0 0 0 275.686 82.272 Q 275.32 81.993 274.839 81.75 A 8.466 8.466 0 0 0 273.9 81.35 Q 272.274 80.763 269.424 80.462 A 42.499 42.499 0 0 0 268.8 80.4 Z" id="6" vector-effect="non-scaling-stroke"/><path d="M 321.6 97.6 L 319 97.6 L 319 87.8 A 51.178 51.178 0 0 0 321.061 87.761 Q 323.188 87.675 324.7 87.4 Q 326.072 87.151 326.978 86.668 A 3.865 3.865 0 0 0 327.9 86 Q 328.9 85 328.9 83.2 Q 328.9 81.9 328.25 79.1 Q 327.6 76.3 326.8 73 L 314.1 24.1 L 327.3 24.1 L 334.8 62.2 L 341.3 24.1 L 354.4 24.1 L 340.9 84.2 A 23.189 23.189 0 0 1 339.864 87.716 Q 339.15 89.553 338.159 90.984 A 12.392 12.392 0 0 1 337.2 92.2 Q 334.6 95.1 330.7 96.35 Q 326.8 97.6 321.6 97.6 Z" id="8" vector-effect="non-scaling-stroke"/><path d="M 359.6 62.7 L 359.6 43.3 A 33.413 33.413 0 0 1 359.939 38.414 Q 360.433 35.072 361.65 32.4 Q 363.7 27.9 367.8 25.55 A 16.59 16.59 0 0 1 372.288 23.825 Q 374.286 23.357 376.613 23.239 A 31.578 31.578 0 0 1 378.2 23.2 A 27.95 27.95 0 0 1 382.623 23.531 Q 385.088 23.926 387.119 24.794 A 15.325 15.325 0 0 1 388.65 25.55 Q 392.8 27.9 394.85 32.4 A 21.553 21.553 0 0 1 396.38 37.333 Q 396.9 40.075 396.9 43.3 L 396.9 62.7 A 33.413 33.413 0 0 1 396.562 67.587 Q 396.067 70.928 394.85 73.6 Q 392.8 78.1 388.65 80.45 Q 384.5 82.8 378.2 82.8 A 27.816 27.816 0 0 1 373.785 82.47 Q 370.363 81.919 367.8 80.45 Q 363.7 78.1 361.65 73.6 A 21.553 21.553 0 0 1 360.121 68.668 Q 359.6 65.925 359.6 62.7 Z M 383.4 63.6 L 383.4 42.4 Q 383.4 39.7 383.1 37.5 A 9 9 0 0 0 382.744 35.911 Q 382.441 34.986 381.941 34.27 A 5.334 5.334 0 0 0 381.7 33.95 Q 380.686 32.705 378.651 32.609 A 7.376 7.376 0 0 0 378.3 32.6 A 6.208 6.208 0 0 0 377.01 32.726 Q 376.222 32.893 375.633 33.285 A 3.291 3.291 0 0 0 374.9 33.95 A 6.174 6.174 0 0 0 373.943 35.625 Q 373.657 36.36 373.495 37.238 A 11.025 11.025 0 0 0 373.45 37.5 A 27.355 27.355 0 0 0 373.177 39.979 A 36.512 36.512 0 0 0 373.1 42.4 L 373.1 63.6 A 36.287 36.287 0 0 0 373.205 66.419 A 28.083 28.083 0 0 0 373.45 68.55 Q 373.8 70.8 374.9 72.1 A 3.447 3.447 0 0 0 376.545 73.16 Q 377.12 73.34 377.82 73.385 A 7.485 7.485 0 0 0 378.3 73.4 Q 379.9 73.4 380.92 72.771 A 3.255 3.255 0 0 0 381.7 72.1 Q 382.8 70.8 383.1 68.55 Q 383.4 66.3 383.4 63.6 Z" id="9" vector-effect="non-scaling-stroke"/><path d="M 405.7 70.1 L 405.7 24.1 L 419.3 24.1 L 419.3 67.6 Q 419.3 69.293 419.66 70.498 A 5.235 5.235 0 0 0 420.15 71.65 A 2.732 2.732 0 0 0 421.725 72.879 Q 422.222 73.042 422.839 73.085 A 6.615 6.615 0 0 0 423.3 73.1 A 6.114 6.114 0 0 0 425.291 72.756 A 7.879 7.879 0 0 0 426.35 72.3 A 22.788 22.788 0 0 0 429.119 70.604 A 25.226 25.226 0 0 0 429.4 70.4 L 429.4 24.1 L 443 24.1 L 443 81.9 L 429.4 81.9 L 429.4 76.4 Q 426.5 79.2 423 81 Q 419.5 82.8 415.5 82.8 A 10.837 10.837 0 0 1 412.981 82.523 A 7.778 7.778 0 0 1 409.9 81.05 A 9.575 9.575 0 0 1 407.117 77.414 A 11.951 11.951 0 0 1 406.7 76.35 A 19.269 19.269 0 0 1 405.702 70.332 A 21.659 21.659 0 0 1 405.7 70.1 Z" id="10" vector-effect="non-scaling-stroke"/><path d="M 467.4 81.9 L 453.8 81.9 L 453.8 24.1 L 467.4 24.1 L 467.4 33 A 39.697 39.697 0 0 1 469.275 30.091 Q 470.29 28.667 471.306 27.569 A 15.753 15.753 0 0 1 473.4 25.65 Q 476.4 23.4 480 23.4 A 12.467 12.467 0 0 1 480.429 23.407 Q 480.769 23.419 481.05 23.45 Q 481.36 23.485 481.74 23.543 A 26.53 26.53 0 0 1 482.1 23.6 L 482.1 37.7 Q 480.9 37.2 479.45 36.85 Q 478 36.5 476.5 36.5 A 9.646 9.646 0 0 0 472.732 37.232 A 9.264 9.264 0 0 0 471.6 37.8 A 10.101 10.101 0 0 0 469.78 39.2 Q 468.557 40.366 467.4 42.1 L 467.4 81.9 Z" id="11" vector-effect="non-scaling-stroke"/><path d="M 526.7 100.9 L 513.1 100.9 L 513.1 24.1 L 526.7 24.1 L 526.7 28.5 Q 529.2 26.1 532.2 24.65 Q 535.2 23.2 538.5 23.2 A 13.856 13.856 0 0 1 541.281 23.464 Q 543.033 23.823 544.405 24.67 A 8.381 8.381 0 0 1 544.9 25 A 12.098 12.098 0 0 1 548.701 29.544 A 14.213 14.213 0 0 1 548.8 29.75 Q 550.2 32.7 550.75 36.05 Q 551.3 39.4 551.3 42.5 L 551.3 62.1 Q 551.3 67.8 549.95 72.5 A 19.458 19.458 0 0 1 548.463 76.249 A 14.445 14.445 0 0 1 545.65 80 A 9.951 9.951 0 0 1 540.672 82.527 A 14.363 14.363 0 0 1 537.8 82.8 Q 534.7 82.8 531.95 81.3 A 25.903 25.903 0 0 1 527.647 78.335 A 29.578 29.578 0 0 1 526.7 77.5 L 526.7 100.9 Z M 537.7 62.6 L 537.7 41.9 Q 537.7 39.2 537.3 37.05 A 9.386 9.386 0 0 0 536.87 35.472 Q 536.539 34.587 536.04 33.904 A 5.471 5.471 0 0 0 535.8 33.6 A 3.55 3.55 0 0 0 533.815 32.427 A 5.479 5.479 0 0 0 532.6 32.3 A 7.069 7.069 0 0 0 529.766 32.906 A 8.305 8.305 0 0 0 529.45 33.05 A 13.995 13.995 0 0 0 527.484 34.2 A 12.15 12.15 0 0 0 526.7 34.8 L 526.7 71.3 Q 528 72.2 529.5 72.75 A 9.161 9.161 0 0 0 532.489 73.298 A 10.396 10.396 0 0 0 532.7 73.3 A 5.28 5.28 0 0 0 533.963 73.159 A 3.357 3.357 0 0 0 535.95 71.85 A 6.605 6.605 0 0 0 536.735 70.39 Q 537.153 69.328 537.35 67.95 Q 537.7 65.5 537.7 62.6 Z" id="13" vector-effect="non-scaling-stroke"/><path d="M 582.7 46 L 582.7 41 A 29.675 29.675 0 0 0 582.651 39.238 Q 582.569 37.863 582.35 36.8 A 6.573 6.573 0 0 0 582.021 35.682 Q 581.772 35.06 581.407 34.593 A 3.574 3.574 0 0 0 581.05 34.2 Q 580.1 33.3 578.1 33.3 A 5.891 5.891 0 0 0 576.94 33.408 Q 576.231 33.551 575.676 33.881 A 3.421 3.421 0 0 0 575.35 34.1 A 4.099 4.099 0 0 0 574.132 35.626 A 5.392 5.392 0 0 0 573.85 36.35 Q 573.4 37.8 573.3 39.7 L 573.1 43.2 L 560.2 42.7 A 35.337 35.337 0 0 1 560.762 37.226 Q 561.295 34.397 562.317 32.158 A 14.624 14.624 0 0 1 565.15 27.95 A 14.455 14.455 0 0 1 570.903 24.425 Q 574.476 23.2 579.3 23.2 A 24.862 24.862 0 0 1 583.99 23.612 Q 589.158 24.607 591.95 28 Q 595.502 32.316 595.86 39.381 A 31.986 31.986 0 0 1 595.9 41 L 595.9 67.7 Q 595.9 70.9 596.05 73.5 Q 596.2 76.1 596.45 78.2 A 805.358 805.358 0 0 0 596.659 79.942 Q 596.788 81 596.9 81.9 L 584.7 81.9 A 146.352 146.352 0 0 0 584.409 80.045 Q 584.203 78.785 583.95 77.35 Q 583.517 74.896 583.316 73.692 A 127.839 127.839 0 0 1 583.3 73.6 Q 582.3 77.1 579.5 79.95 A 9.294 9.294 0 0 1 574.574 82.549 A 13.55 13.55 0 0 1 571.9 82.8 A 12.398 12.398 0 0 1 568.387 82.321 A 10.248 10.248 0 0 1 565.2 80.75 Q 562.4 78.7 560.9 75.55 Q 559.4 72.4 559.4 69 Q 559.4 63.6 561.4 59.9 Q 563.4 56.2 566.7 53.7 A 35.664 35.664 0 0 1 572.033 50.379 A 41.934 41.934 0 0 1 574.2 49.35 Q 578.4 47.5 582.7 46 Z M 582.7 68.9 L 582.7 52.8 Q 580.5 54.1 578.55 55.4 A 20.17 20.17 0 0 0 576.105 57.306 A 17.455 17.455 0 0 0 575.15 58.25 A 11.632 11.632 0 0 0 573.442 60.581 A 10.387 10.387 0 0 0 572.95 61.6 A 9.436 9.436 0 0 0 572.354 63.749 A 13.015 13.015 0 0 0 572.2 65.8 A 13.308 13.308 0 0 0 572.335 67.755 Q 572.489 68.79 572.819 69.634 A 6.181 6.181 0 0 0 573.45 70.85 A 4.35 4.35 0 0 0 574.623 72.048 Q 575.518 72.649 576.698 72.696 A 5.08 5.08 0 0 0 576.9 72.7 Q 578.2 72.7 579.35 72.05 Q 580.5 71.4 581.4 70.5 A 12.659 12.659 0 0 0 581.914 69.957 Q 582.168 69.672 582.363 69.409 A 5.063 5.063 0 0 0 582.7 68.9 Z" id="14" vector-effect="non-scaling-stroke"/><path d="M 620.3 81.9 L 606.8 81.9 L 606.8 0.9 L 620.3 0.9 L 620.3 81.9 Z" id="15" vector-effect="non-scaling-stroke"/><path d="M 644.2 81.9 L 631.1 81.9 L 631.1 24.1 L 644.2 24.1 L 644.2 29.1 A 21.091 21.091 0 0 1 647.478 26.23 A 16.867 16.867 0 0 1 650.7 24.45 Q 654.2 23 657.8 23 Q 661.2 23 663.75 24.7 Q 666.3 26.4 667.5 30.1 A 24.903 24.903 0 0 1 670.464 27.187 Q 672.419 25.578 674.5 24.65 Q 678.2 23 682.1 23 Q 685.2 23 687.6 24.55 A 9.684 9.684 0 0 1 690.374 27.31 A 12.869 12.869 0 0 1 691.4 29.15 A 14.055 14.055 0 0 1 692.357 32.116 Q 692.662 33.557 692.757 35.231 A 27.653 27.653 0 0 1 692.8 36.8 L 692.8 81.9 L 679.8 81.9 L 679.8 38 Q 679.8 34.7 678.7 33.45 A 3.583 3.583 0 0 0 676.654 32.299 A 5.339 5.339 0 0 0 675.6 32.2 Q 674.223 32.2 672.586 32.868 A 12.861 12.861 0 0 0 672.05 33.1 A 12.273 12.273 0 0 0 668.507 35.594 A 13.806 13.806 0 0 0 668.5 35.6 L 668.5 36.15 L 668.5 36.8 L 668.5 81.9 L 655.6 81.9 L 655.6 38 Q 655.6 35.363 654.866 34.035 A 3.011 3.011 0 0 0 654.45 33.45 Q 653.3 32.2 651.3 32.2 A 6.685 6.685 0 0 0 649.68 32.411 Q 648.977 32.587 648.225 32.909 A 12.243 12.243 0 0 0 647.8 33.1 Q 645.9 34 644.2 35.6 L 644.2 81.9 Z" id="16" vector-effect="non-scaling-stroke"/><path d="M 741.6 81.9 L 728.1 81.9 L 728.1 0.9 L 741.6 0.9 L 741.6 81.9 Z" id="18" vector-effect="non-scaling-stroke"/><path d="M 766.4 81.9 L 752.8 81.9 L 752.8 24.1 L 766.4 24.1 L 766.4 81.9 Z M 766.4 14.9 L 752.8 14.9 L 752.8 3.6 L 766.4 3.6 L 766.4 14.9 Z" id="19" vector-effect="non-scaling-stroke"/><path d="M 790.8 81.9 L 777.2 81.9 L 777.2 24.1 L 790.8 24.1 L 790.8 29.9 A 30.847 30.847 0 0 1 795.228 26.319 A 26.838 26.838 0 0 1 797.35 25.05 Q 800.8 23.2 804.8 23.2 A 12.01 12.01 0 0 1 807.098 23.407 Q 808.458 23.672 809.526 24.278 A 6.603 6.603 0 0 1 810.5 24.95 A 9.816 9.816 0 0 1 813.1 28.366 A 12.333 12.333 0 0 1 813.6 29.6 Q 814.6 32.5 814.6 35.9 L 814.6 81.9 L 801 81.9 L 801 38.6 A 13.624 13.624 0 0 0 800.926 37.127 Q 800.757 35.58 800.205 34.608 A 4.128 4.128 0 0 0 800.2 34.6 A 2.555 2.555 0 0 0 798.78 33.452 Q 798.075 33.2 797.1 33.2 A 5.729 5.729 0 0 0 795.685 33.388 Q 794.901 33.588 794.05 34 A 19.357 19.357 0 0 0 791.452 35.529 A 22.18 22.18 0 0 0 790.8 36 L 790.8 81.9 Z" id="20" vector-effect="non-scaling-stroke"/><path d="M 823.5 61.7 L 823.5 44.3 A 40.779 40.779 0 0 1 823.775 39.435 Q 824.082 36.884 824.733 34.721 A 21.24 21.24 0 0 1 825.45 32.7 A 14.973 14.973 0 0 1 828.44 28.035 A 13.906 13.906 0 0 1 831.55 25.6 A 16.694 16.694 0 0 1 836.099 23.838 Q 838.125 23.36 840.488 23.24 A 31.895 31.895 0 0 1 842.1 23.2 A 29.722 29.722 0 0 1 846.115 23.454 Q 848.223 23.742 849.948 24.357 A 12.894 12.894 0 0 1 852.85 25.8 A 13.626 13.626 0 0 1 857.622 31.506 A 17.718 17.718 0 0 1 858.35 33.35 A 29.516 29.516 0 0 1 859.475 38.07 Q 859.836 40.354 859.949 42.962 A 56.371 56.371 0 0 1 860 45.4 L 860 53.6 L 837 53.6 L 837 65 A 23.605 23.605 0 0 0 837.065 66.807 Q 837.135 67.708 837.278 68.474 A 10.402 10.402 0 0 0 837.55 69.6 A 6.291 6.291 0 0 0 838.017 70.742 Q 838.522 71.682 839.3 72.2 A 4.698 4.698 0 0 0 841.139 72.914 A 6.299 6.299 0 0 0 842.2 73 Q 843.694 73 844.706 72.415 A 3.562 3.562 0 0 0 845.1 72.15 A 4.21 4.21 0 0 0 846.195 70.859 Q 846.488 70.337 846.688 69.692 A 7.323 7.323 0 0 0 846.7 69.65 Q 847.081 68.393 847.172 66.642 A 22.101 22.101 0 0 0 847.2 65.5 L 847.2 60.7 L 859.9 60.7 L 859.9 64.6 A 28.231 28.231 0 0 1 859.449 69.817 Q 858.895 72.759 857.662 75.068 A 14.204 14.204 0 0 1 855.5 78.1 A 13.708 13.708 0 0 1 849.74 81.698 Q 847.51 82.447 844.782 82.687 A 30.613 30.613 0 0 1 842.1 82.8 A 28.304 28.304 0 0 1 837.738 82.484 Q 835.382 82.116 833.446 81.32 A 14.612 14.612 0 0 1 831.5 80.35 A 14.359 14.359 0 0 1 825.768 73.878 A 17.891 17.891 0 0 1 825.45 73.15 Q 823.727 68.952 823.527 63.231 A 43.764 43.764 0 0 1 823.5 61.7 Z M 837 42.9 L 837 46.9 L 847.2 46.9 L 847.2 41.4 A 29.922 29.922 0 0 0 847.151 39.638 Q 847.098 38.73 846.985 37.958 A 12.146 12.146 0 0 0 846.7 36.55 Q 846.2 34.7 845.1 33.85 A 3.689 3.689 0 0 0 843.919 33.255 Q 843.403 33.096 842.783 33.036 A 8.194 8.194 0 0 0 842 33 Q 840.396 33 839.348 33.715 A 3.545 3.545 0 0 0 839.1 33.9 A 3.71 3.71 0 0 0 838.286 34.862 Q 837.791 35.678 837.5 36.9 A 14.415 14.415 0 0 0 837.239 38.368 Q 837.034 39.946 837.005 42.159 A 56.832 56.832 0 0 0 837 42.9 Z" id="21" vector-effect="non-scaling-stroke"/><path d="M 866.2 67.5 L 876.3 63.6 Q 877.127 66.837 878.333 69.031 A 12.351 12.351 0 0 0 879.5 70.8 Q 881.484 73.28 884.649 73.3 A 8.149 8.149 0 0 0 884.7 73.3 A 7.651 7.651 0 0 0 886.051 73.189 Q 886.792 73.056 887.373 72.764 A 3.557 3.557 0 0 0 888.3 72.1 A 3.969 3.969 0 0 0 889.359 70.138 A 5.954 5.954 0 0 0 889.5 68.8 Q 889.5 66.4 888.05 64.45 A 15.485 15.485 0 0 0 887.009 63.209 Q 885.561 61.639 883.1 59.6 L 876.1 53.7 Q 872.3 50.4 869.95 46.95 Q 867.6 43.5 867.6 38.3 A 17.16 17.16 0 0 1 868.038 34.334 A 13.087 13.087 0 0 1 869.75 30.25 Q 871.9 26.9 875.65 25.05 A 18.076 18.076 0 0 1 882.305 23.265 A 21.762 21.762 0 0 1 884 23.2 A 19.163 19.163 0 0 1 888.957 23.808 A 14.022 14.022 0 0 1 895.25 27.35 A 18.432 18.432 0 0 1 899.894 34.962 A 24.172 24.172 0 0 1 900.7 38.2 L 891.8 42 Q 891.3 39.6 890.35 37.55 A 10.781 10.781 0 0 0 889.127 35.507 A 8.88 8.88 0 0 0 887.9 34.2 Q 886.4 32.9 884.4 32.9 A 5.5 5.5 0 0 0 882.945 33.083 A 4.066 4.066 0 0 0 881.05 34.2 A 4.435 4.435 0 0 0 879.825 36.95 A 5.958 5.958 0 0 0 879.8 37.5 Q 879.8 39.2 881.25 41 A 21.085 21.085 0 0 0 882.454 42.359 Q 883.062 42.993 883.799 43.678 A 48.967 48.967 0 0 0 885.4 45.1 L 892.5 51.5 Q 894.8 53.5 896.9 55.8 Q 899 58.1 900.4 60.95 A 13.546 13.546 0 0 1 901.635 65.057 A 17.466 17.466 0 0 1 901.8 67.5 A 18.397 18.397 0 0 1 901.415 71.367 A 13.122 13.122 0 0 1 899.55 75.9 Q 897.3 79.3 893.45 81.05 A 19.664 19.664 0 0 1 886.986 82.711 A 23.801 23.801 0 0 1 884.9 82.8 A 22.408 22.408 0 0 1 879.496 82.181 A 16.332 16.332 0 0 1 872.9 78.9 A 18.36 18.36 0 0 1 868.467 73.374 Q 867.249 71.106 866.427 68.31 A 33.09 33.09 0 0 1 866.2 67.5 Z" id="22" vector-effect="non-scaling-stroke"/></g></svg>